<?xml version="1.0" encoding="UTF-8"?>
<svg xmlns="http://www.w3.org/2000/svg" viewBox="0 0 1196.33 258.82">
  <defs>
    <style>
      .cls-1, .cls-2, .cls-3, .cls-4 {
        stroke-width: 0px;
      }

      .cls-2 {
        fill: #4d4d4d;
      }

      .cls-3 {
        fill: #f7931e;
      }

      .cls-4 {
        fill: #0071bc;
      }
    </style>
  </defs>
  <g id="Layer_1" data-name="Layer 1">
    <g>
      <ellipse class="cls-3" cx="52.56" cy="54.96" rx="51.78" ry="20.82" transform="translate(-22.32 41.69) rotate(-36.23)"/>
      <ellipse class="cls-4" cx="134.02" cy="234.56" rx="22.85" ry="24.26"/>
      <ellipse class="cls-3" cx="258.28" cy="188.68" rx="56.58" ry="19.45" transform="translate(-61.12 205.89) rotate(-39.23)"/>
      <ellipse class="cls-4" cx="52.91" cy="220.37" rx="33.2" ry="35.82" transform="translate(-4.53 1.14) rotate(-1.18)"/>
      <path class="cls-4" d="M318,97.37c0,18.92-14.06,34.26-31.4,34.26-17.34,0-31.4-15.34-31.4-34.26s14.06-34.26,31.4-34.26c17.34,0,31.4,15.34,31.4,34.26Z"/>
      <path class="cls-4" d="M258.6,44.51c0,13.75-10.21,24.9-22.81,24.9-12.6,0-22.81-11.15-22.81-24.9s10.21-24.9,22.81-24.9c12.6,0,22.81,11.15,22.81,24.9Z"/>
      <path class="cls-4" d="M189.52,35.38c0,19.54-14.52,35.38-32.43,35.38-17.91,0-32.43-15.84-32.43-35.38S139.18,0,157.09,0c17.91,0,32.43,15.84,32.43,35.38Z"/>
      <ellipse class="cls-4" cx="22.6" cy="142.61" rx="22.6" ry="23.99"/>
    </g>
  </g>
  <g id="Layer_3" data-name="Layer 3">
    <g>
      <path class="cls-1" d="M429.48,213.84h7.81c.99,0,1.99.1,3,.31,1.01.21,1.92.57,2.72,1.07.8.51,1.46,1.19,1.96,2.05.51.86.76,1.95.76,3.26,0,1.38-.42,2.58-1.27,3.61-.84,1.02-1.97,1.7-3.38,2.02v.07c1.7.2,3.11.86,4.23,1.98,1.12,1.12,1.68,2.65,1.68,4.57,0,1.09-.23,2.08-.68,2.98-.46.9-1.1,1.67-1.94,2.29-.84.63-1.86,1.12-3.06,1.46-1.21.35-2.56.52-4.06.52h-7.75v-26.2ZM432.14,225.31h5.36c.64,0,1.29-.07,1.94-.22.65-.15,1.25-.4,1.79-.76.54-.36.98-.83,1.31-1.42.33-.59.5-1.32.5-2.18s-.17-1.55-.5-2.13-.78-1.05-1.35-1.42c-.57-.37-1.23-.63-2-.8-.76-.16-1.58-.24-2.44-.24h-4.62v9.18ZM432.14,237.74h4.96c.96,0,1.88-.09,2.76-.28.88-.19,1.64-.48,2.29-.89.65-.41,1.18-.94,1.57-1.59.39-.65.59-1.44.59-2.35,0-1.73-.59-3.02-1.76-3.87-1.17-.85-2.83-1.28-4.98-1.28h-5.44v10.25Z"/>
      <path class="cls-1" d="M452.82,224.71c-.02-.74-.06-1.41-.11-2h2.4c.05.47.09.99.11,1.55.02.57.04,1.04.04,1.41h.07c.49-1.01,1.23-1.83,2.22-2.46.99-.63,2.1-.94,3.33-.94.32,0,.61.01.87.04.26.02.52.07.8.15l-.33,2.41c-.15-.05-.4-.1-.74-.15-.35-.05-.69-.07-1.04-.07-.67,0-1.31.12-1.92.37-.62.25-1.15.63-1.61,1.16-.46.53-.83,1.21-1.11,2.03-.28.82-.43,1.82-.43,2.97v8.86h-2.52v-13.5c0-.47-.01-1.07-.04-1.81Z"/>
      <path class="cls-1" d="M476.65,228.82c0-1.49-.4-2.61-1.18-3.34-.79-.73-1.94-1.1-3.44-1.1-1.04,0-2,.19-2.89.55-.89.37-1.64.86-2.26,1.48l-1.41-1.66c.72-.72,1.66-1.31,2.83-1.78,1.17-.47,2.5-.7,3.98-.7.94,0,1.81.13,2.63.39.81.26,1.53.65,2.15,1.17.62.52,1.1,1.17,1.44,1.96.34.79.52,1.71.52,2.77v7.59c0,.67.02,1.36.07,2.07.05.72.12,1.32.22,1.81h-2.26c-.07-.42-.14-.88-.19-1.37-.05-.49-.07-.97-.07-1.44h-.07c-.79,1.16-1.68,1.99-2.68,2.5s-2.2.76-3.61.76c-.67,0-1.35-.09-2.05-.28-.7-.19-1.34-.49-1.92-.91s-1.06-.97-1.44-1.63c-.38-.67-.57-1.48-.57-2.45,0-1.34.34-2.4,1.02-3.17.68-.78,1.58-1.36,2.72-1.74,1.13-.38,2.44-.63,3.9-.74,1.47-.11,2.99-.17,4.57-.17v-.55ZM475.91,231.37c-1.04,0-2.08.04-3.13.13-1.05.09-2,.26-2.85.52-.85.26-1.55.64-2.09,1.13-.54.49-.81,1.15-.81,1.96,0,.62.12,1.13.35,1.55.23.42.55.76.94,1.02.39.26.83.44,1.31.56s.97.17,1.46.17c.89,0,1.68-.15,2.37-.46.69-.31,1.27-.73,1.74-1.26.47-.53.83-1.14,1.07-1.83.25-.69.37-1.42.37-2.18v-1.3h-.74Z"/>
      <path class="cls-1" d="M487.75,222.72c.05.47.09.99.11,1.55.02.57.04,1.04.04,1.41h.07c.49-1.01,1.29-1.83,2.4-2.46,1.11-.63,2.28-.94,3.52-.94,2.2,0,3.84.65,4.94,1.96,1.1,1.31,1.65,3.03,1.65,5.18v10.62h-2.52v-9.58c0-.91-.07-1.74-.22-2.48-.15-.74-.4-1.38-.76-1.91-.36-.53-.84-.94-1.44-1.24-.6-.3-1.36-.44-2.28-.44-.67,0-1.31.14-1.94.41-.63.27-1.19.68-1.68,1.24-.49.55-.89,1.26-1.18,2.11s-.44,1.86-.44,3.02v8.88h-2.52v-13.5c0-.47-.01-1.07-.04-1.81-.02-.74-.06-1.41-.11-2h2.4Z"/>
      <path class="cls-1" d="M509.25,222.72c.05.47.09.99.11,1.55.02.57.04,1.04.04,1.41h.07c.49-1.01,1.29-1.83,2.4-2.46,1.11-.63,2.28-.94,3.52-.94,2.2,0,3.84.65,4.94,1.96,1.1,1.31,1.65,3.03,1.65,5.18v10.62h-2.52v-9.58c0-.91-.07-1.74-.22-2.48-.15-.74-.4-1.38-.76-1.91-.36-.53-.84-.94-1.44-1.24-.6-.3-1.36-.44-2.28-.44-.67,0-1.31.14-1.94.41-.63.27-1.19.68-1.68,1.24-.49.55-.89,1.26-1.18,2.11s-.44,1.86-.44,3.02v8.88h-2.52v-13.5c0-.47-.01-1.07-.04-1.81-.02-.74-.06-1.41-.11-2h2.4Z"/>
      <path class="cls-1" d="M531.56,216.06c0,.52-.19.94-.55,1.28-.37.33-.78.5-1.22.5s-.85-.17-1.22-.5c-.37-.33-.55-.76-.55-1.28s.19-.94.55-1.28c.37-.33.78-.5,1.22-.5s.85.17,1.22.5c.37.33.55.76.55,1.28ZM531.04,240.03h-2.52v-17.32h2.52v17.32Z"/>
      <path class="cls-1" d="M538.66,243.51c.69.89,1.63,1.64,2.83,2.26,1.2.62,2.46.93,3.79.93,1.23,0,2.28-.18,3.15-.54.86-.36,1.56-.85,2.09-1.46.53-.62.92-1.34,1.17-2.16.25-.83.37-1.71.37-2.65v-3.26h-.07c-.67,1.09-1.61,1.92-2.83,2.52-1.22.59-2.46.89-3.72.89-1.36,0-2.58-.22-3.68-.67-1.1-.44-2.04-1.05-2.81-1.83-.78-.78-1.38-1.71-1.81-2.79-.43-1.08-.65-2.26-.65-3.52s.22-2.39.65-3.48c.43-1.08,1.04-2.03,1.81-2.85.78-.81,1.71-1.46,2.81-1.92,1.1-.47,2.32-.7,3.68-.7,1.26,0,2.49.3,3.7.89,1.21.59,2.16,1.44,2.85,2.55h.07v-3h2.52v17.17c0,.94-.13,1.94-.39,3-.26,1.06-.74,2.03-1.44,2.92s-1.66,1.63-2.87,2.22c-1.21.59-2.77.89-4.7.89-1.6,0-3.13-.31-4.59-.92-1.46-.62-2.7-1.47-3.74-2.55l1.81-1.92ZM539.14,231.15c0,.91.15,1.78.44,2.59.3.81.72,1.53,1.28,2.15.56.62,1.24,1.1,2.05,1.46.81.36,1.74.54,2.78.54.96,0,1.85-.16,2.66-.48.81-.32,1.52-.78,2.11-1.37s1.05-1.3,1.39-2.13c.33-.83.5-1.74.5-2.76,0-.91-.17-1.78-.5-2.59-.33-.81-.8-1.53-1.39-2.15-.59-.62-1.29-1.11-2.11-1.48-.81-.37-1.7-.55-2.66-.55-1.04,0-1.96.19-2.78.55-.81.37-1.5.86-2.05,1.48-.56.62-.98,1.33-1.28,2.15-.3.81-.44,1.68-.44,2.59Z"/>
      <path class="cls-1" d="M572.04,228.82c0-1.49-.4-2.61-1.18-3.34-.79-.73-1.94-1.1-3.44-1.1-1.04,0-2,.19-2.89.55-.89.37-1.64.86-2.26,1.48l-1.41-1.66c.72-.72,1.66-1.31,2.83-1.78,1.17-.47,2.5-.7,3.98-.7.94,0,1.81.13,2.63.39.81.26,1.53.65,2.15,1.17.62.52,1.1,1.17,1.44,1.96.34.79.52,1.71.52,2.77v7.59c0,.67.02,1.36.07,2.07.05.72.12,1.32.22,1.81h-2.26c-.07-.42-.14-.88-.19-1.37-.05-.49-.07-.97-.07-1.44h-.07c-.79,1.16-1.68,1.99-2.68,2.5s-2.2.76-3.61.76c-.67,0-1.35-.09-2.05-.28-.7-.19-1.34-.49-1.92-.91s-1.06-.97-1.44-1.63c-.38-.67-.57-1.48-.57-2.45,0-1.34.34-2.4,1.02-3.17.68-.78,1.58-1.36,2.72-1.74,1.13-.38,2.44-.63,3.9-.74,1.47-.11,2.99-.17,4.57-.17v-.55ZM571.3,231.37c-1.04,0-2.08.04-3.13.13-1.05.09-2,.26-2.85.52-.85.26-1.55.64-2.09,1.13-.54.49-.81,1.15-.81,1.96,0,.62.12,1.13.35,1.55.23.42.55.76.94,1.02.39.26.83.44,1.31.56s.97.17,1.46.17c.89,0,1.68-.15,2.37-.46.69-.31,1.27-.73,1.74-1.26.47-.53.83-1.14,1.07-1.83.25-.69.37-1.42.37-2.18v-1.3h-.74Z"/>
      <path class="cls-1" d="M583.14,222.72c.05.47.09.99.11,1.55.02.57.04,1.04.04,1.41h.07c.49-1.01,1.29-1.83,2.4-2.46,1.11-.63,2.28-.94,3.52-.94,2.2,0,3.84.65,4.94,1.96,1.1,1.31,1.65,3.03,1.65,5.18v10.62h-2.52v-9.58c0-.91-.07-1.74-.22-2.48-.15-.74-.4-1.38-.76-1.91-.36-.53-.84-.94-1.44-1.24-.6-.3-1.36-.44-2.28-.44-.67,0-1.31.14-1.94.41-.63.27-1.19.68-1.68,1.24-.49.55-.89,1.26-1.18,2.11s-.44,1.86-.44,3.02v8.88h-2.52v-13.5c0-.47-.01-1.07-.04-1.81-.02-.74-.06-1.41-.11-2h2.4Z"/>
      <path class="cls-1" d="M614.44,237.66h12.21v2.37h-14.87v-26.2h2.66v23.83Z"/>
      <path class="cls-1" d="M641.41,228.82c0-1.49-.4-2.61-1.18-3.34-.79-.73-1.94-1.1-3.44-1.1-1.04,0-2,.19-2.89.55-.89.37-1.64.86-2.26,1.48l-1.41-1.66c.72-.72,1.66-1.31,2.83-1.78,1.17-.47,2.5-.7,3.98-.7.94,0,1.81.13,2.63.39.81.26,1.53.65,2.15,1.17.62.52,1.1,1.17,1.44,1.96.34.79.52,1.71.52,2.77v7.59c0,.67.02,1.36.07,2.07.05.72.12,1.32.22,1.81h-2.26c-.07-.42-.14-.88-.19-1.37-.05-.49-.07-.97-.07-1.44h-.07c-.79,1.16-1.68,1.99-2.68,2.5-1,.51-2.2.76-3.61.76-.67,0-1.35-.09-2.05-.28-.7-.19-1.35-.49-1.92-.91s-1.06-.97-1.44-1.63c-.38-.67-.57-1.48-.57-2.45,0-1.34.34-2.4,1.02-3.17s1.58-1.36,2.72-1.74c1.13-.38,2.44-.63,3.9-.74,1.47-.11,2.99-.17,4.57-.17v-.55ZM640.67,231.37c-1.04,0-2.08.04-3.13.13s-2,.26-2.85.52c-.85.26-1.55.64-2.09,1.13-.54.49-.81,1.15-.81,1.96,0,.62.12,1.13.35,1.55.23.42.55.76.94,1.02.39.26.83.44,1.31.56.48.11.97.17,1.46.17.89,0,1.68-.15,2.37-.46.69-.31,1.27-.73,1.74-1.26.47-.53.83-1.14,1.07-1.83.25-.69.37-1.42.37-2.18v-1.3h-.74Z"/>
      <path class="cls-1" d="M652.84,237.11v2.92h-2.52v-27.97h2.52v13.65h.07c.74-1.13,1.7-1.99,2.89-2.57,1.18-.58,2.4-.87,3.66-.87,1.36,0,2.58.23,3.68.7,1.1.47,2.04,1.11,2.81,1.92s1.38,1.78,1.81,2.89.65,2.31.65,3.59-.22,2.48-.65,3.59c-.43,1.11-1.04,2.07-1.81,2.89s-1.71,1.46-2.81,1.92-2.32.7-3.68.7c-1.26,0-2.48-.28-3.66-.85-1.18-.57-2.15-1.41-2.89-2.52h-.07ZM665.76,231.37c0-.96-.15-1.87-.45-2.72-.29-.85-.72-1.59-1.28-2.22-.55-.63-1.24-1.13-2.05-1.5-.81-.37-1.74-.55-2.77-.55-.96,0-1.85.18-2.66.54-.81.36-1.52.85-2.11,1.48-.59.63-1.05,1.37-1.39,2.22s-.5,1.77-.5,2.76.17,1.91.5,2.76.8,1.58,1.39,2.2c.59.62,1.29,1.1,2.11,1.46.81.36,1.7.54,2.66.54,1.04,0,1.96-.18,2.77-.54.81-.36,1.5-.85,2.05-1.48.55-.63.98-1.37,1.28-2.22.3-.85.45-1.76.45-2.72Z"/>
      <path class="cls-1" d="M682.44,226.93c0-.91.17-1.76.52-2.55.35-.79.81-1.48,1.41-2.07.59-.59,1.28-1.06,2.07-1.41.79-.35,1.64-.52,2.55-.52s1.76.17,2.55.52c.79.35,1.48.81,2.07,1.41.59.59,1.06,1.28,1.41,2.07.34.79.52,1.64.52,2.55s-.17,1.76-.52,2.55c-.35.79-.81,1.48-1.41,2.07-.59.59-1.28,1.06-2.07,1.41-.79.35-1.64.52-2.55.52s-1.76-.17-2.55-.52c-.79-.35-1.48-.81-2.07-1.41-.59-.59-1.06-1.28-1.41-2.07-.35-.79-.52-1.64-.52-2.55Z"/>
      <path class="cls-1" d="M713.63,240.03h-2.66v-26.2h7.7c1.28,0,2.47.12,3.57.37,1.1.25,2.05.65,2.85,1.2.8.56,1.42,1.28,1.87,2.16s.67,1.97.67,3.26c0,.96-.17,1.84-.52,2.63-.35.79-.81,1.47-1.41,2.05-.59.58-1.29,1.04-2.11,1.39-.81.35-1.7.57-2.66.67l7.66,12.47h-3.26l-7.25-12.25h-4.44v12.25ZM713.63,225.49h4.62c2.15,0,3.8-.39,4.96-1.17s1.74-1.94,1.74-3.5c0-.86-.16-1.59-.48-2.18-.32-.59-.77-1.07-1.33-1.44-.57-.37-1.26-.64-2.07-.81-.81-.17-1.71-.26-2.7-.26h-4.74v9.36Z"/>
      <path class="cls-1" d="M745.12,240.03c-.05-.47-.09-.99-.11-1.55-.02-.57-.04-1.04-.04-1.41h-.07c-.49,1.01-1.3,1.83-2.41,2.46-1.11.63-2.28.94-3.52.94-2.2,0-3.84-.65-4.94-1.96-1.1-1.31-1.65-3.03-1.65-5.18v-10.62h2.52v9.58c0,.91.07,1.74.22,2.48.15.74.4,1.38.76,1.91.36.53.84.94,1.44,1.24s1.36.44,2.28.44c.67,0,1.31-.14,1.94-.41s1.19-.68,1.68-1.24c.49-.56.89-1.26,1.18-2.11s.44-1.86.44-3.02v-8.88h2.52v13.5c0,.47.01,1.07.04,1.81.02.74.06,1.41.11,2h-2.41Z"/>
      <path class="cls-1" d="M761.85,224.82h-4.88v10.1c0,.64.06,1.17.19,1.59.12.42.3.75.54.98.23.23.51.4.83.48.32.09.67.13,1.04.13.35,0,.71-.05,1.09-.15.38-.1.75-.23,1.09-.41l.11,2.18c-.44.17-.91.3-1.39.39-.48.09-1,.13-1.57.13-.47,0-.96-.06-1.48-.19-.52-.12-1-.36-1.44-.7-.44-.35-.81-.81-1.09-1.41-.28-.59-.42-1.37-.42-2.33v-10.8h-3.59v-2.11h3.59v-4.88h2.52v4.88h4.88v2.11Z"/>
      <path class="cls-1" d="M766.69,243.51c.69.89,1.63,1.64,2.83,2.26,1.2.62,2.46.93,3.79.93,1.23,0,2.28-.18,3.15-.54.86-.36,1.56-.85,2.09-1.46.53-.62.92-1.34,1.17-2.16.25-.83.37-1.71.37-2.65v-3.26h-.07c-.67,1.09-1.61,1.92-2.83,2.52-1.22.59-2.46.89-3.72.89-1.36,0-2.58-.22-3.68-.67-1.1-.44-2.04-1.05-2.81-1.83-.78-.78-1.38-1.71-1.81-2.79-.43-1.08-.65-2.26-.65-3.52s.22-2.39.65-3.48c.43-1.08,1.04-2.03,1.81-2.85.78-.81,1.71-1.46,2.81-1.92,1.1-.47,2.32-.7,3.68-.7,1.26,0,2.49.3,3.7.89,1.21.59,2.16,1.44,2.85,2.55h.07v-3h2.52v17.17c0,.94-.13,1.94-.39,3-.26,1.06-.74,2.03-1.44,2.92-.7.89-1.66,1.63-2.87,2.22-1.21.59-2.77.89-4.7.89-1.6,0-3.13-.31-4.59-.92-1.46-.62-2.7-1.47-3.74-2.55l1.81-1.92ZM767.17,231.15c0,.91.15,1.78.44,2.59s.72,1.53,1.28,2.15c.56.62,1.24,1.1,2.05,1.46.81.36,1.74.54,2.78.54.96,0,1.85-.16,2.66-.48.81-.32,1.52-.78,2.11-1.37.59-.59,1.05-1.3,1.39-2.13.33-.83.5-1.74.5-2.76,0-.91-.17-1.78-.5-2.59-.33-.81-.79-1.53-1.39-2.15-.59-.62-1.29-1.11-2.11-1.48-.81-.37-1.7-.55-2.66-.55-1.04,0-1.96.19-2.78.55-.81.37-1.5.86-2.05,1.48-.55.62-.98,1.33-1.28,2.15-.3.81-.44,1.68-.44,2.59Z"/>
      <path class="cls-1" d="M804.91,230.86v.55c0,.2-.01.41-.04.63h-14.36c.02.86.2,1.68.52,2.44s.76,1.43,1.33,2,1.23,1.02,2,1.35,1.59.5,2.48.5c1.31,0,2.44-.3,3.38-.91.95-.6,1.67-1.3,2.17-2.09l1.89,1.48c-1.04,1.31-2.18,2.25-3.42,2.81-1.25.57-2.58.85-4.01.85-1.28,0-2.47-.23-3.57-.68-1.1-.46-2.04-1.09-2.83-1.91-.79-.81-1.41-1.78-1.87-2.89-.46-1.11-.68-2.32-.68-3.63s.22-2.52.67-3.63c.44-1.11,1.06-2.07,1.85-2.89.79-.81,1.71-1.45,2.78-1.91,1.06-.46,2.21-.68,3.44-.68,1.36,0,2.55.23,3.59.68,1.04.46,1.9,1.07,2.59,1.85.69.78,1.21,1.68,1.57,2.72.36,1.04.54,2.15.54,3.33ZM802.36,230.04c-.07-1.63-.6-2.98-1.57-4.05-.97-1.07-2.36-1.61-4.16-1.61-.84,0-1.62.15-2.33.46-.72.31-1.34.73-1.89,1.26-.54.53-.97,1.14-1.29,1.81-.32.68-.51,1.39-.55,2.13h11.8Z"/>
      <path class="cls-1" d="M810.28,224.71c-.02-.74-.06-1.41-.11-2h2.41c.05.47.09.99.11,1.55.02.57.04,1.04.04,1.41h.07c.49-1.01,1.23-1.83,2.22-2.46.99-.63,2.1-.94,3.33-.94.32,0,.61.01.87.04.26.02.52.07.8.15l-.33,2.41c-.15-.05-.4-.1-.74-.15-.35-.05-.69-.07-1.04-.07-.67,0-1.31.12-1.92.37-.62.25-1.15.63-1.61,1.16-.46.53-.83,1.21-1.11,2.03-.28.82-.43,1.82-.43,2.97v8.86h-2.52v-13.5c0-.47-.01-1.07-.04-1.81Z"/>
      <path class="cls-1" d="M832.85,226.82c-.37-.72-.93-1.3-1.68-1.76-.75-.46-1.61-.68-2.57-.68-.44,0-.89.05-1.33.15-.44.1-.84.26-1.18.48-.35.22-.62.51-.83.85-.21.35-.31.75-.31,1.22,0,.81.33,1.44,1,1.87.67.43,1.71.8,3.14,1.09,2.05.42,3.56,1.03,4.53,1.83.97.8,1.46,1.88,1.46,3.24,0,.99-.19,1.82-.57,2.5-.38.68-.88,1.23-1.5,1.67-.62.43-1.31.74-2.09.92s-1.56.28-2.35.28c-1.31,0-2.58-.27-3.81-.81-1.23-.54-2.25-1.39-3.03-2.55l2-1.48c.44.76,1.1,1.41,1.96,1.92.86.52,1.81.78,2.85.78.54,0,1.06-.05,1.55-.15.49-.1.93-.27,1.3-.52.37-.25.67-.56.89-.94.22-.38.33-.86.33-1.42,0-.91-.44-1.6-1.31-2.05-.88-.46-2.14-.88-3.79-1.28-.52-.12-1.07-.28-1.65-.46-.58-.19-1.12-.46-1.61-.81s-.9-.81-1.22-1.35c-.32-.54-.48-1.22-.48-2.04,0-.89.17-1.65.52-2.28.34-.63.81-1.15,1.39-1.55.58-.41,1.24-.71,1.98-.91.74-.2,1.5-.3,2.29-.3,1.21,0,2.38.27,3.51.81,1.13.54,1.99,1.31,2.55,2.29l-1.92,1.44Z"/>
      <path class="cls-1" d="M859.12,240.7c-1.97,0-3.59-.34-4.85-1.02s-2.26-1.54-3-2.57c-.74-1.04-1.25-2.16-1.54-3.39-.28-1.22-.43-2.37-.43-3.46v-16.43h2.66v16.13c0,1.06.12,2.09.37,3.09.25,1,.65,1.89,1.2,2.66s1.29,1.41,2.2,1.89c.91.48,2.04.72,3.37.72s2.45-.24,3.37-.72c.91-.48,1.65-1.11,2.2-1.89.56-.78.96-1.67,1.2-2.66.25-1,.37-2.03.37-3.09v-16.13h2.66v16.43c0,1.09-.14,2.24-.43,3.46-.28,1.22-.8,2.35-1.54,3.39-.74,1.04-1.75,1.89-3.01,2.57-1.27.68-2.88,1.02-4.83,1.02Z"/>
      <path class="cls-1" d="M877.84,222.72c.05.47.09.99.11,1.55.02.57.04,1.04.04,1.41h.07c.49-1.01,1.29-1.83,2.41-2.46s2.28-.94,3.51-.94c2.2,0,3.84.65,4.94,1.96,1.1,1.31,1.65,3.03,1.65,5.18v10.62h-2.52v-9.58c0-.91-.07-1.74-.22-2.48-.15-.74-.4-1.38-.76-1.91s-.84-.94-1.44-1.24c-.61-.3-1.36-.44-2.28-.44-.67,0-1.31.14-1.94.41-.63.27-1.19.68-1.68,1.24-.49.55-.89,1.26-1.18,2.11s-.44,1.86-.44,3.02v8.88h-2.52v-13.5c0-.47-.01-1.07-.04-1.81-.02-.74-.06-1.41-.11-2h2.41Z"/>
      <path class="cls-1" d="M900.15,216.06c0,.52-.19.94-.56,1.28s-.78.5-1.22.5-.85-.17-1.22-.5-.56-.76-.56-1.28.19-.94.56-1.28.78-.5,1.22-.5.85.17,1.22.5.56.76.56,1.28ZM899.63,240.03h-2.52v-17.32h2.52v17.32Z"/>
      <path class="cls-1" d="M913.43,240.03h-2.77l-7.07-17.32h2.81l5.62,14.65h.07l5.66-14.65h2.7l-7.03,17.32Z"/>
      <path class="cls-1" d="M940.15,230.86v.55c0,.2-.01.41-.04.63h-14.36c.02.86.2,1.68.52,2.44s.76,1.43,1.33,2,1.23,1.02,2,1.35,1.59.5,2.48.5c1.31,0,2.44-.3,3.38-.91.95-.6,1.67-1.3,2.17-2.09l1.89,1.48c-1.04,1.31-2.18,2.25-3.42,2.81-1.25.57-2.58.85-4.01.85-1.28,0-2.47-.23-3.57-.68-1.1-.46-2.04-1.09-2.83-1.91-.79-.81-1.41-1.78-1.87-2.89-.46-1.11-.68-2.32-.68-3.63s.22-2.52.67-3.63c.44-1.11,1.06-2.07,1.85-2.89.79-.81,1.71-1.45,2.78-1.91,1.06-.46,2.21-.68,3.44-.68,1.36,0,2.55.23,3.59.68,1.04.46,1.9,1.07,2.59,1.85.69.78,1.21,1.68,1.57,2.72.36,1.04.54,2.15.54,3.33ZM937.59,230.04c-.07-1.63-.6-2.98-1.57-4.05-.97-1.07-2.36-1.61-4.16-1.61-.84,0-1.62.15-2.33.46-.72.31-1.34.73-1.89,1.26-.54.53-.97,1.14-1.29,1.81-.32.68-.51,1.39-.55,2.13h11.8Z"/>
      <path class="cls-1" d="M945.51,224.71c-.02-.74-.06-1.41-.11-2h2.41c.05.47.09.99.11,1.55.02.57.04,1.04.04,1.41h.07c.49-1.01,1.23-1.83,2.22-2.46.99-.63,2.1-.94,3.33-.94.32,0,.61.01.87.04.26.02.52.07.8.15l-.33,2.41c-.15-.05-.4-.1-.74-.15-.35-.05-.69-.07-1.04-.07-.67,0-1.31.12-1.92.37-.62.25-1.15.63-1.61,1.16-.46.53-.83,1.21-1.11,2.03-.28.82-.43,1.82-.43,2.97v8.86h-2.52v-13.5c0-.47-.01-1.07-.04-1.81Z"/>
      <path class="cls-1" d="M968.08,226.82c-.37-.72-.93-1.3-1.68-1.76-.75-.46-1.61-.68-2.57-.68-.44,0-.89.05-1.33.15-.44.1-.84.26-1.18.48-.35.22-.62.51-.83.85-.21.35-.31.75-.31,1.22,0,.81.33,1.44,1,1.87.67.43,1.71.8,3.14,1.09,2.05.42,3.56,1.03,4.53,1.83.97.8,1.46,1.88,1.46,3.24,0,.99-.19,1.82-.57,2.5-.38.68-.88,1.23-1.5,1.67-.62.43-1.31.74-2.09.92s-1.56.28-2.35.28c-1.31,0-2.58-.27-3.81-.81-1.23-.54-2.25-1.39-3.03-2.55l2-1.48c.44.76,1.1,1.41,1.96,1.92.86.52,1.81.78,2.85.78.54,0,1.06-.05,1.55-.15.49-.1.93-.27,1.3-.52.37-.25.67-.56.89-.94.22-.38.33-.86.33-1.42,0-.91-.44-1.6-1.31-2.05-.88-.46-2.14-.88-3.79-1.28-.52-.12-1.07-.28-1.65-.46-.58-.19-1.12-.46-1.61-.81s-.9-.81-1.22-1.35c-.32-.54-.48-1.22-.48-2.04,0-.89.17-1.65.52-2.28.34-.63.81-1.15,1.39-1.55.58-.41,1.24-.71,1.98-.91.74-.2,1.5-.3,2.29-.3,1.21,0,2.38.27,3.51.81,1.13.54,1.99,1.31,2.55,2.29l-1.92,1.44Z"/>
      <path class="cls-1" d="M978.37,216.06c0,.52-.19.94-.56,1.28s-.78.5-1.22.5-.85-.17-1.22-.5-.56-.76-.56-1.28.19-.94.56-1.28.78-.5,1.22-.5.85.17,1.22.5.56.76.56,1.28ZM977.85,240.03h-2.52v-17.32h2.52v17.32Z"/>
      <path class="cls-1" d="M992.35,224.82h-4.88v10.1c0,.64.06,1.17.19,1.59.12.42.3.75.54.98.23.23.51.4.83.48.32.09.67.13,1.04.13.35,0,.71-.05,1.09-.15.38-.1.75-.23,1.09-.41l.11,2.18c-.44.17-.91.3-1.39.39-.48.09-1,.13-1.57.13-.47,0-.96-.06-1.48-.19-.52-.12-1-.36-1.44-.7-.44-.35-.81-.81-1.09-1.41-.28-.59-.42-1.37-.42-2.33v-10.8h-3.59v-2.11h3.59v-4.88h2.52v4.88h4.88v2.11Z"/>
      <path class="cls-1" d="M1002.23,237.33h.07l5.36-14.61h2.74l-8.62,21.79c-.52,1.33-1.18,2.4-1.98,3.2-.8.8-1.96,1.2-3.46,1.2-.77,0-1.52-.07-2.26-.22l.26-2.29c.59.2,1.21.3,1.85.3.86,0,1.54-.27,2.04-.8.49-.53.92-1.29,1.29-2.28l1.41-3.63-7.4-17.28h2.81l5.88,14.61Z"/>
      <path class="cls-1" d="M1041.34,232.11h-19.98v-2.11h19.98v2.11Z"/>
      <path class="cls-1" d="M1077.23,235.78c-.44.67-.98,1.3-1.61,1.89-.63.59-1.36,1.12-2.18,1.57-.83.45-1.74.81-2.74,1.07-1,.26-2.09.39-3.27.39-1.97,0-3.8-.35-5.48-1.04-1.68-.69-3.12-1.65-4.33-2.87-1.21-1.22-2.15-2.67-2.83-4.35-.68-1.68-1.02-3.52-1.02-5.51s.34-3.83,1.04-5.51c.69-1.68,1.65-3.13,2.87-4.35s2.66-2.18,4.33-2.87c1.67-.69,3.47-1.04,5.42-1.04.96,0,1.91.1,2.83.3.92.2,1.79.48,2.61.85.81.36,1.55.8,2.22,1.31.67.51,1.22,1.08,1.67,1.73l-2.22,1.63c-.27-.42-.64-.84-1.09-1.26-.46-.42-.99-.79-1.61-1.11-.62-.32-1.29-.58-2.02-.78-.73-.2-1.51-.3-2.35-.3-1.7,0-3.22.31-4.57.92-1.34.62-2.49,1.44-3.42,2.49-.94,1.05-1.65,2.26-2.15,3.63-.49,1.38-.74,2.83-.74,4.35s.25,2.98.76,4.35c.5,1.38,1.23,2.59,2.16,3.63s2.08,1.87,3.42,2.49c1.34.62,2.85.92,4.53.92,1.5,0,2.94-.31,4.29-.92,1.36-.62,2.49-1.6,3.4-2.96l2.07,1.33Z"/>
      <path class="cls-1" d="M1091.92,228.82c0-1.49-.39-2.61-1.18-3.34-.79-.73-1.94-1.1-3.44-1.1-1.04,0-2,.19-2.89.55-.89.37-1.64.86-2.26,1.48l-1.41-1.66c.71-.72,1.66-1.31,2.83-1.78,1.17-.47,2.5-.7,3.98-.7.94,0,1.81.13,2.63.39.81.26,1.53.65,2.15,1.17.62.52,1.1,1.17,1.44,1.96.35.79.52,1.71.52,2.77v7.59c0,.67.02,1.36.07,2.07.05.72.12,1.32.22,1.81h-2.26c-.07-.42-.14-.88-.19-1.37-.05-.49-.07-.97-.07-1.44h-.07c-.79,1.16-1.68,1.99-2.68,2.5s-2.2.76-3.61.76c-.67,0-1.35-.09-2.05-.28-.7-.19-1.34-.49-1.92-.91-.58-.42-1.06-.97-1.44-1.63-.38-.67-.57-1.48-.57-2.45,0-1.34.34-2.4,1.02-3.17.68-.78,1.58-1.36,2.72-1.74,1.13-.38,2.44-.63,3.9-.74,1.47-.11,2.99-.17,4.57-.17v-.55ZM1091.18,231.37c-1.04,0-2.08.04-3.13.13-1.05.09-2,.26-2.85.52-.85.26-1.55.64-2.09,1.13-.54.49-.81,1.15-.81,1.96,0,.62.12,1.13.35,1.55.23.42.55.76.94,1.02.39.26.83.44,1.31.56.48.11.97.17,1.46.17.89,0,1.68-.15,2.37-.46.69-.31,1.27-.73,1.74-1.26.47-.53.83-1.14,1.07-1.83.25-.69.37-1.42.37-2.18v-1.3h-.74Z"/>
      <path class="cls-1" d="M1105.51,223.21c1.02-.63,2.16-.94,3.42-.94.47,0,.96.05,1.46.15.5.1,1,.29,1.48.57.48.28.92.66,1.33,1.13.41.47.76,1.07,1.05,1.81.59-1.18,1.4-2.09,2.42-2.72,1.02-.63,2.24-.94,3.64-.94,2.19,0,3.84.65,4.94,1.96,1.1,1.31,1.65,3.03,1.65,5.18v10.62h-2.52v-9.58c0-1.83-.34-3.29-1.02-4.4-.68-1.11-1.83-1.67-3.46-1.67-.91,0-1.68.19-2.31.55-.63.37-1.13.86-1.52,1.46-.38.6-.66,1.29-.83,2.05-.17.77-.26,1.55-.26,2.37v9.21h-2.52v-10.1c0-.84-.06-1.6-.18-2.29-.12-.69-.34-1.28-.65-1.76-.31-.48-.73-.85-1.28-1.11-.54-.26-1.23-.39-2.07-.39-.59,0-1.19.14-1.79.41-.61.27-1.15.68-1.63,1.24-.48.55-.87,1.26-1.17,2.11s-.44,1.86-.44,3.02v8.88h-2.52v-13.5c0-.47-.01-1.07-.04-1.81-.02-.74-.06-1.41-.11-2h2.41c.05.47.09.99.11,1.55.02.57.04,1.04.04,1.41h.07c.49-1.01,1.25-1.83,2.28-2.46Z"/>
      <path class="cls-1" d="M1147.68,237.11c-.74,1.11-1.7,1.95-2.89,2.52-1.18.57-2.41.85-3.66.85-1.36,0-2.58-.23-3.68-.7-1.1-.47-2.04-1.11-2.81-1.92-.78-.81-1.38-1.78-1.81-2.89-.43-1.11-.65-2.31-.65-3.59s.22-2.48.65-3.59c.43-1.11,1.04-2.07,1.81-2.89.78-.81,1.71-1.46,2.81-1.92,1.1-.47,2.32-.7,3.68-.7,1.26,0,2.48.29,3.66.87,1.18.58,2.15,1.44,2.89,2.57h.07v-13.65h2.52v27.97h-2.52v-2.92h-.07ZM1134.84,231.37c0,.96.15,1.87.44,2.72s.72,1.59,1.28,2.22c.56.63,1.24,1.12,2.05,1.48.81.36,1.74.54,2.78.54.96,0,1.85-.18,2.66-.54.81-.36,1.52-.84,2.11-1.46.59-.62,1.05-1.35,1.39-2.2s.5-1.77.5-2.76-.17-1.91-.5-2.76-.79-1.59-1.39-2.22c-.59-.63-1.29-1.12-2.11-1.48-.81-.36-1.7-.54-2.66-.54-1.04,0-1.96.19-2.78.55-.81.37-1.5.87-2.05,1.5-.55.63-.98,1.37-1.28,2.22s-.44,1.76-.44,2.72Z"/>
      <path class="cls-1" d="M1172.76,230.86v.55c0,.2-.01.41-.04.63h-14.36c.02.86.2,1.68.52,2.44s.76,1.43,1.33,2,1.23,1.02,2,1.35,1.59.5,2.48.5c1.31,0,2.44-.3,3.38-.91.95-.6,1.67-1.3,2.17-2.09l1.89,1.48c-1.04,1.31-2.18,2.25-3.42,2.81-1.25.57-2.58.85-4.01.85-1.28,0-2.47-.23-3.57-.68-1.1-.46-2.04-1.09-2.83-1.91-.79-.81-1.41-1.78-1.87-2.89-.46-1.11-.68-2.32-.68-3.63s.22-2.52.67-3.63c.44-1.11,1.06-2.07,1.85-2.89.79-.81,1.71-1.45,2.78-1.91,1.06-.46,2.21-.68,3.44-.68,1.36,0,2.55.23,3.59.68,1.04.46,1.9,1.07,2.59,1.85.69.78,1.21,1.68,1.57,2.72.36,1.04.54,2.15.54,3.33ZM1170.21,230.04c-.07-1.63-.6-2.98-1.57-4.05-.97-1.07-2.36-1.61-4.16-1.61-.84,0-1.62.15-2.33.46-.72.31-1.34.73-1.89,1.26-.54.53-.97,1.14-1.29,1.81-.32.68-.51,1.39-.55,2.13h11.8Z"/>
      <path class="cls-1" d="M1180.42,222.72c.05.47.09.99.11,1.55.02.57.04,1.04.04,1.41h.07c.49-1.01,1.29-1.83,2.41-2.46s2.28-.94,3.51-.94c2.2,0,3.84.65,4.94,1.96,1.1,1.31,1.65,3.03,1.65,5.18v10.62h-2.52v-9.58c0-.91-.07-1.74-.22-2.48-.15-.74-.4-1.38-.76-1.91s-.84-.94-1.44-1.24c-.61-.3-1.36-.44-2.28-.44-.67,0-1.31.14-1.94.41-.63.27-1.19.68-1.68,1.24-.49.55-.89,1.26-1.18,2.11s-.44,1.86-.44,3.02v8.88h-2.52v-13.5c0-.47-.01-1.07-.04-1.81-.02-.74-.06-1.41-.11-2h2.41Z"/>
    </g>
    <g>
      <path class="cls-1" d="M438.56,166.47c1.85,0,3.31.48,4.37,1.42,1.06.95,1.59,2.24,1.59,3.87,0,.3-.02.59-.06.89-.04.3-.08.62-.13.96l-1.91,10.62h-2.49l1.7-9.58c.15-.76.22-1.49.22-2.18,0-1.21-.29-2.16-.87-2.87-.58-.7-1.6-1.05-3.05-1.05-.67,0-1.33.14-2,.41s-1.28.69-1.85,1.26c-.57.57-1.07,1.28-1.5,2.13-.43.85-.75,1.86-.94,3.02l-1.55,8.88h-2.48l4.92-27.97h2.48l-2.37,13.51h.07c.64-1.01,1.48-1.81,2.52-2.41,1.04-.59,2.15-.89,3.33-.89Z"/>
      <path class="cls-1" d="M454.61,181.5h.07l8.44-14.58h2.77l-13.1,21.79c-.81,1.33-1.65,2.4-2.52,3.2-.86.8-1.94,1.2-3.22,1.2-.71,0-1.42-.07-2.11-.22l.37-2.29c.54.2,1.09.3,1.63.3.79,0,1.47-.27,2.05-.8.58-.53,1.15-1.29,1.72-2.28l2.15-3.63-3.63-17.28h2.59l2.78,14.58Z"/>
      <path class="cls-1" d="M466.75,177.2c0-1.48.25-2.87.76-4.18.51-1.31,1.21-2.44,2.13-3.4.91-.96,1.99-1.73,3.24-2.29,1.25-.57,2.6-.85,4.05-.85,1.26,0,2.44.28,3.53.85,1.1.57,1.93,1.41,2.5,2.52h.07l2.4-13.58h2.48l-4.96,27.97h-2.48l.52-2.85h-.07c-.57.89-1.42,1.66-2.55,2.31-1.13.65-2.4.98-3.81.98-1.18,0-2.25-.18-3.2-.54-.95-.36-1.77-.87-2.46-1.54s-1.22-1.46-1.59-2.37c-.37-.91-.56-1.92-.56-3.03ZM469.34,177.04c0,.79.12,1.52.35,2.19.23.67.59,1.26,1.05,1.76.47.51,1.04.9,1.7,1.19.67.28,1.44.43,2.33.43,1.08,0,2.1-.22,3.03-.67.94-.44,1.75-1.06,2.44-1.84.69-.78,1.23-1.68,1.63-2.69.39-1.01.59-2.1.59-3.26,0-.82-.13-1.56-.39-2.24-.26-.68-.64-1.27-1.13-1.78-.49-.51-1.09-.9-1.78-1.17-.69-.27-1.46-.41-2.29-.41-1.13,0-2.16.22-3.09.67-.93.45-1.72,1.05-2.39,1.82s-1.18,1.66-1.54,2.69c-.36,1.03-.54,2.13-.54,3.32Z"/>
      <path class="cls-1" d="M492.52,168.92c.11-.74.19-1.41.24-2h2.37c-.05.47-.11.99-.19,1.55-.07.57-.15,1.04-.22,1.41h.07c.64-1.01,1.46-1.83,2.44-2.46.99-.63,2.1-.94,3.33-.94.32,0,.6.01.85.04.25.02.51.07.78.15l-.59,2.37c-.12-.05-.35-.1-.68-.15-.33-.05-.67-.07-1.02-.07-.67,0-1.32.12-1.96.37-.64.25-1.23.64-1.76,1.17-.53.53-1,1.21-1.41,2.04-.41.83-.71,1.82-.91,2.98l-1.55,8.88h-2.48l2.37-13.5c.1-.47.2-1.07.31-1.81Z"/>
      <path class="cls-1" d="M510.19,184.68c-1.16,0-2.23-.19-3.22-.55-.99-.37-1.83-.88-2.53-1.54-.7-.65-1.25-1.44-1.65-2.37-.4-.92-.59-1.94-.59-3.05,0-1.46.25-2.83.76-4.13.51-1.29,1.21-2.43,2.13-3.4.91-.97,2-1.74,3.26-2.31,1.26-.57,2.64-.85,4.14-.85,1.18,0,2.26.18,3.24.54.97.36,1.81.87,2.52,1.54.7.67,1.25,1.46,1.65,2.37s.59,1.92.59,3.03c0,1.48-.25,2.87-.76,4.18-.51,1.31-1.21,2.44-2.13,3.4-.91.96-2,1.73-3.26,2.29-1.26.57-2.64.85-4.14.85ZM517.88,174.11c0-.79-.12-1.53-.37-2.21-.25-.68-.61-1.27-1.09-1.76-.48-.5-1.06-.88-1.75-1.17-.69-.28-1.46-.43-2.32-.43-1.08,0-2.08.23-2.99.69-.91.46-1.7,1.08-2.36,1.86-.66.78-1.19,1.68-1.57,2.71-.38,1.03-.57,2.11-.57,3.25,0,.79.12,1.53.37,2.21.25.68.61,1.27,1.09,1.76.48.5,1.06.88,1.73,1.17.68.28,1.44.43,2.31.43,1.11,0,2.12-.23,3.04-.69.92-.46,1.72-1.07,2.38-1.84.66-.77,1.18-1.66,1.55-2.69.37-1.03.55-2.12.55-3.28Z"/>
      <path class="cls-1" d="M529.54,169.73c.27-.44.63-.86,1.07-1.26.44-.39.94-.74,1.5-1.04.55-.3,1.15-.53,1.79-.7.64-.17,1.31-.26,2-.26,1.18,0,2.25.18,3.2.54.95.36,1.77.87,2.46,1.54.69.67,1.22,1.46,1.59,2.37s.56,1.92.56,3.03c0,1.48-.26,2.87-.78,4.18-.52,1.31-1.23,2.44-2.13,3.4-.9.96-1.97,1.73-3.22,2.29-1.25.57-2.6.85-4.05.85-1.26,0-2.44-.28-3.53-.85-1.1-.57-1.93-1.41-2.5-2.52h-.07l-2.11,11.8h-2.48l4.66-26.2h2.48l-.52,2.81h.07ZM541.12,174.11c0-.77-.12-1.49-.35-2.17-.23-.68-.59-1.27-1.05-1.78-.47-.51-1.04-.9-1.7-1.19-.67-.28-1.44-.43-2.33-.43-1.09,0-2.1.22-3.03.67-.94.45-1.75,1.06-2.44,1.84-.69.78-1.23,1.68-1.63,2.71-.39,1.03-.59,2.11-.59,3.25,0,.82.13,1.56.39,2.24.26.68.63,1.27,1.13,1.78.49.51,1.08.9,1.76,1.17.68.27,1.45.41,2.31.41,1.13,0,2.16-.22,3.09-.67.93-.44,1.72-1.05,2.39-1.82s1.18-1.66,1.54-2.69.54-2.13.54-3.32Z"/>
      <path class="cls-1" d="M558.51,166.47c1.85,0,3.31.48,4.37,1.42,1.06.95,1.59,2.24,1.59,3.87,0,.3-.02.59-.06.89-.04.3-.08.62-.13.96l-1.91,10.62h-2.49l1.7-9.58c.15-.76.22-1.49.22-2.18,0-1.21-.29-2.16-.87-2.87-.58-.7-1.6-1.05-3.05-1.05-.67,0-1.33.14-2,.41s-1.28.69-1.85,1.26c-.57.57-1.07,1.28-1.5,2.13-.43.85-.75,1.86-.94,3.02l-1.55,8.88h-2.48l4.92-27.97h2.48l-2.37,13.51h.07c.64-1.01,1.48-1.81,2.52-2.41,1.04-.59,2.15-.89,3.33-.89Z"/>
      <path class="cls-1" d="M576.82,184.68c-1.16,0-2.23-.19-3.22-.55-.99-.37-1.83-.88-2.53-1.54-.7-.65-1.25-1.44-1.65-2.37-.4-.92-.59-1.94-.59-3.05,0-1.46.25-2.83.76-4.13.51-1.29,1.21-2.43,2.13-3.4.91-.97,2-1.74,3.26-2.31,1.26-.57,2.64-.85,4.14-.85,1.18,0,2.26.18,3.24.54.97.36,1.81.87,2.52,1.54.7.67,1.25,1.46,1.65,2.37s.59,1.92.59,3.03c0,1.48-.25,2.87-.76,4.18-.51,1.31-1.21,2.44-2.13,3.4-.91.96-2,1.73-3.26,2.29-1.26.57-2.64.85-4.14.85ZM584.52,174.11c0-.79-.12-1.53-.37-2.21-.25-.68-.61-1.27-1.09-1.76-.48-.5-1.06-.88-1.75-1.17-.69-.28-1.46-.43-2.32-.43-1.08,0-2.08.23-2.99.69-.91.46-1.7,1.08-2.36,1.86-.66.78-1.19,1.68-1.57,2.71-.38,1.03-.57,2.11-.57,3.25,0,.79.12,1.53.37,2.21.25.68.61,1.27,1.09,1.76.48.5,1.06.88,1.73,1.17.68.28,1.44.43,2.31.43,1.11,0,2.12-.23,3.04-.69.92-.46,1.72-1.07,2.38-1.84.66-.77,1.18-1.66,1.55-2.69.37-1.03.55-2.12.55-3.28Z"/>
      <path class="cls-1" d="M594.06,181.31l-.52,2.92h-2.48l4.96-27.97h2.48l-2.4,13.47h.07c.27-.44.63-.86,1.07-1.26.44-.39.94-.74,1.5-1.04.55-.3,1.15-.53,1.79-.7.64-.17,1.31-.26,2-.26,1.18,0,2.25.18,3.2.54.95.36,1.77.87,2.46,1.54.69.67,1.22,1.46,1.59,2.37s.56,1.92.56,3.03c0,1.48-.26,2.87-.78,4.18-.52,1.31-1.23,2.44-2.13,3.4-.9.96-1.97,1.73-3.22,2.29-1.25.57-2.6.85-4.05.85-.62,0-1.23-.07-1.83-.22s-1.18-.36-1.72-.65c-.54-.28-1.03-.63-1.46-1.05-.43-.42-.77-.9-1.02-1.44h-.07ZM607.75,174.11c0-.77-.12-1.49-.35-2.17-.23-.68-.59-1.27-1.05-1.78-.47-.51-1.04-.9-1.7-1.19-.67-.28-1.44-.43-2.33-.43-1.09,0-2.1.22-3.03.67-.94.45-1.75,1.06-2.44,1.84-.69.78-1.23,1.68-1.63,2.71-.39,1.03-.59,2.11-.59,3.25,0,.82.13,1.56.39,2.24.26.68.63,1.27,1.13,1.78.49.51,1.08.9,1.76,1.17.68.27,1.45.41,2.31.41,1.13,0,2.16-.22,3.09-.67.93-.44,1.72-1.05,2.39-1.82s1.18-1.66,1.54-2.69.54-2.13.54-3.32Z"/>
      <path class="cls-1" d="M616.71,184.23h-2.48l3.07-17.32h2.48l-3.07,17.32ZM621.26,160.22c0,.49-.17.91-.5,1.26-.33.35-.75.52-1.24.52s-.87-.15-1.2-.44c-.33-.3-.5-.7-.5-1.22s.18-.95.54-1.29c.36-.35.77-.52,1.24-.52s.86.15,1.18.46c.32.31.48.72.48,1.24Z"/>
      <path class="cls-1" d="M637.91,170.84c-.29-.67-.81-1.21-1.54-1.65-.73-.43-1.56-.65-2.5-.65-1.11,0-2.13.22-3.07.67-.94.45-1.75,1.06-2.42,1.84-.68.78-1.21,1.68-1.59,2.71-.38,1.03-.57,2.12-.57,3.28,0,.79.12,1.53.37,2.21.25.68.61,1.27,1.09,1.76.48.5,1.07.88,1.76,1.17.69.28,1.48.43,2.37.43,1.11,0,2.08-.21,2.92-.63s1.57-.96,2.18-1.63l1.59,1.37c-.89.91-1.89,1.63-3,2.16-1.11.53-2.41.8-3.88.8-1.23,0-2.34-.18-3.33-.54-.99-.36-1.84-.86-2.55-1.52-.71-.65-1.25-1.44-1.63-2.35-.38-.91-.56-1.92-.56-3.03,0-1.48.25-2.87.75-4.18.5-1.31,1.2-2.45,2.11-3.42.91-.97,2-1.74,3.28-2.31,1.28-.57,2.7-.85,4.25-.85,1.28,0,2.49.23,3.61.7,1.12.47,1.97,1.21,2.54,2.22l-2.18,1.44Z"/>
      <path class="cls-1" d="M673.12,166.47c1.88,0,3.34.48,4.39,1.42,1.05.95,1.57,2.24,1.57,3.87,0,.3-.02.59-.05.89s-.08.62-.13.96l-1.91,10.62h-2.49l1.7-9.58c.15-.76.22-1.49.22-2.18,0-1.21-.28-2.16-.85-2.87-.57-.7-1.57-1.05-3-1.05-.91,0-1.7.19-2.35.56-.65.37-1.21.86-1.67,1.48-.46.62-.81,1.31-1.07,2.07-.26.77-.46,1.55-.61,2.37l-1.63,9.21h-2.48l1.81-10.06c.15-.81.22-1.57.22-2.26,0-1.04-.25-1.86-.76-2.46-.51-.6-1.4-.91-2.68-.91-.59,0-1.21.14-1.85.41-.64.27-1.25.69-1.81,1.26-.57.57-1.07,1.28-1.52,2.13-.45.85-.77,1.86-.96,3.02l-1.55,8.88h-2.48l2.37-13.5c.1-.47.2-1.07.31-1.81.11-.74.19-1.41.24-2h2.37c-.05.47-.11.99-.18,1.55-.07.57-.15,1.04-.22,1.41h.07c.71-1.06,1.58-1.89,2.59-2.5,1.01-.6,2.15-.91,3.41-.91.47,0,.96.05,1.46.15.51.1.99.29,1.45.57.46.28.86.66,1.2,1.13.35.47.59,1.07.74,1.81.67-1.18,1.52-2.09,2.56-2.72s2.22-.94,3.56-.94Z"/>
      <path class="cls-1" d="M691.45,184.68c-1.16,0-2.23-.19-3.22-.55-.99-.37-1.83-.88-2.54-1.54-.7-.65-1.25-1.44-1.65-2.37-.39-.92-.59-1.94-.59-3.05,0-1.46.25-2.83.76-4.13.5-1.29,1.21-2.43,2.13-3.4.91-.97,2-1.74,3.26-2.31,1.26-.57,2.64-.85,4.14-.85,1.18,0,2.26.18,3.24.54.97.36,1.81.87,2.52,1.54s1.25,1.46,1.65,2.37c.39.91.59,1.92.59,3.03,0,1.48-.25,2.87-.76,4.18-.51,1.31-1.21,2.44-2.13,3.4-.91.96-2,1.73-3.26,2.29-1.26.57-2.64.85-4.14.85ZM699.14,174.11c0-.79-.12-1.53-.37-2.21-.25-.68-.61-1.27-1.09-1.76-.48-.5-1.06-.88-1.75-1.17-.69-.28-1.46-.43-2.33-.43-1.08,0-2.08.23-2.99.69-.91.46-1.7,1.08-2.36,1.86s-1.19,1.68-1.57,2.71c-.38,1.03-.57,2.11-.57,3.25,0,.79.12,1.53.37,2.21.25.68.61,1.27,1.09,1.76.48.5,1.06.88,1.73,1.17.68.28,1.44.43,2.31.43,1.11,0,2.12-.23,3.04-.69.92-.46,1.72-1.07,2.38-1.84s1.18-1.66,1.55-2.69c.37-1.03.55-2.12.55-3.28Z"/>
      <path class="cls-1" d="M705.51,177.2c0-1.48.25-2.87.76-4.18.5-1.31,1.21-2.44,2.13-3.4.91-.96,1.99-1.73,3.24-2.29,1.25-.57,2.6-.85,4.05-.85,1.26,0,2.44.28,3.53.85,1.1.57,1.93,1.41,2.5,2.52h.07l2.41-13.58h2.48l-4.96,27.97h-2.48l.52-2.85h-.07c-.57.89-1.42,1.66-2.55,2.31s-2.41.98-3.81.98c-1.18,0-2.25-.18-3.2-.54-.95-.36-1.77-.87-2.46-1.54-.69-.67-1.22-1.46-1.59-2.37-.37-.91-.56-1.92-.56-3.03ZM708.1,177.04c0,.79.12,1.52.35,2.19.23.67.59,1.26,1.05,1.76.47.51,1.04.9,1.7,1.19.67.28,1.44.43,2.33.43,1.08,0,2.1-.22,3.03-.67.94-.44,1.75-1.06,2.44-1.84s1.23-1.68,1.63-2.69.59-2.1.59-3.26c0-.82-.13-1.56-.39-2.24-.26-.68-.64-1.27-1.13-1.78s-1.09-.9-1.78-1.17c-.69-.27-1.46-.41-2.29-.41-1.14,0-2.17.22-3.09.67-.92.45-1.72,1.05-2.39,1.82s-1.18,1.66-1.54,2.69c-.36,1.03-.54,2.13-.54,3.32Z"/>
      <path class="cls-1" d="M740.73,184.23c.05-.47.11-.99.19-1.55.07-.57.15-1.04.22-1.41h-.07c-.67,1.06-1.52,1.89-2.57,2.5-1.05.6-2.16.91-3.35.91-1.88,0-3.34-.47-4.38-1.41-1.05-.94-1.57-2.22-1.57-3.85,0-.3.02-.59.06-.89.04-.3.08-.62.13-.96l1.91-10.62h2.49l-1.7,9.58c-.15.79-.22,1.52-.22,2.18,0,1.21.28,2.16.85,2.85.57.69,1.56,1.04,2.99,1.04.66,0,1.33-.14,1.99-.41.66-.27,1.28-.68,1.86-1.24.58-.56,1.09-1.26,1.53-2.11.44-.85.76-1.86.96-3.02l1.55-8.88h2.48l-2.37,13.5c-.1.47-.2,1.07-.31,1.8-.11.73-.19,1.39-.24,1.97h-2.41Z"/>
      <path class="cls-1" d="M752.53,184.23h-2.52l4.92-27.97h2.52l-4.92,27.97Z"/>
      <path class="cls-1" d="M772.11,173.62c.07-.42.12-.75.15-.98.02-.23.04-.45.04-.65,0-1.26-.36-2.15-1.07-2.66-.72-.52-1.71-.78-3-.78-1.04,0-2.04.2-3,.61-.96.41-1.76.89-2.41,1.46l-1.11-1.66c.84-.74,1.87-1.34,3.11-1.79,1.23-.46,2.45-.68,3.66-.68.81,0,1.6.09,2.35.28.75.19,1.41.48,1.96.89.55.41,1,.93,1.33,1.55s.5,1.39.5,2.28c0,.22-.01.52-.04.91-.03.38-.06.7-.11.94l-1.26,7.03c-.12.67-.22,1.36-.3,2.07-.07.72-.11,1.32-.11,1.81h-2.22c0-.42.02-.88.06-1.37.04-.49.09-.97.17-1.44h-.07c-.49.57-.99,1.05-1.48,1.46-.49.41-1.01.73-1.54.98-.53.25-1.1.43-1.7.54-.61.11-1.26.17-1.98.17-.59,0-1.2-.07-1.81-.22-.62-.15-1.18-.4-1.68-.76-.51-.36-.92-.82-1.26-1.39-.33-.57-.5-1.27-.5-2.11,0-1.38.39-2.5,1.18-3.35.79-.85,1.82-1.5,3.09-1.96,1.27-.46,2.7-.76,4.27-.92,1.58-.16,3.17-.24,4.77-.24ZM771.18,175.5c-1.11,0-2.25.06-3.4.17s-2.21.32-3.16.63c-.95.31-1.73.74-2.33,1.29-.6.56-.91,1.29-.91,2.2,0,.54.1.99.3,1.35.2.36.46.64.79.85s.72.36,1.15.44c.43.09.87.13,1.31.13.89,0,1.7-.15,2.44-.44.74-.3,1.39-.7,1.96-1.22.57-.52,1.04-1.12,1.41-1.79.37-.68.63-1.4.78-2.16l.26-1.44h-.59Z"/>
      <path class="cls-1" d="M781.71,168.92c.11-.74.19-1.41.24-2h2.37c-.05.47-.11.99-.18,1.55-.07.57-.15,1.04-.22,1.41h.07c.64-1.01,1.46-1.83,2.44-2.46.99-.63,2.1-.94,3.33-.94.32,0,.6.01.85.04.25.02.5.07.78.15l-.59,2.37c-.12-.05-.35-.1-.68-.15-.33-.05-.67-.07-1.02-.07-.67,0-1.32.12-1.96.37-.64.25-1.23.64-1.76,1.17-.53.53-1,1.21-1.41,2.04-.41.83-.71,1.82-.91,2.98l-1.55,8.88h-2.48l2.37-13.5c.1-.47.2-1.07.31-1.81Z"/>
      <path class="cls-1" d="M794.42,184.23h-2.48l3.07-17.32h2.48l-3.07,17.32ZM798.97,160.22c0,.49-.17.91-.5,1.26-.33.35-.75.52-1.24.52s-.87-.15-1.2-.44c-.33-.3-.5-.7-.5-1.22s.18-.95.54-1.29c.36-.35.77-.52,1.24-.52s.86.15,1.18.46c.32.31.48.72.48,1.24Z"/>
      <path class="cls-1" d="M811.03,168.99h-4.7l-1.81,10.17c-.07.45-.11.84-.11,1.19,0,.82.2,1.36.59,1.63.39.27.91.41,1.55.41.34,0,.73-.05,1.15-.16.42-.11.74-.25.96-.43l-.3,2.15c-.32.17-.73.3-1.24.39-.51.09-1.04.13-1.61.13-.42,0-.85-.05-1.28-.15-.43-.1-.83-.28-1.18-.54-.36-.26-.65-.61-.89-1.05s-.35-1.01-.35-1.7c0-.34.04-.74.11-1.18l1.92-10.84h-3.59l.41-2.07h3.52l.85-4.88h2.48l-.85,4.88h4.77l-.41,2.07Z"/>
      <path class="cls-1" d="M818.17,181.5h.07l8.44-14.58h2.78l-13.1,21.79c-.81,1.33-1.65,2.4-2.52,3.2-.86.8-1.94,1.2-3.22,1.2-.72,0-1.42-.07-2.11-.22l.37-2.29c.54.2,1.09.3,1.63.3.79,0,1.47-.27,2.05-.8.58-.53,1.15-1.29,1.72-2.28l2.15-3.63-3.63-17.28h2.59l2.78,14.58Z"/>
      <path class="cls-1" d="M842.15,184.23h-2.48l3.07-17.32h2.48l-3.07,17.32ZM846.7,160.22c0,.49-.17.91-.5,1.26-.33.35-.75.52-1.24.52s-.87-.15-1.2-.44c-.33-.3-.5-.7-.5-1.22s.18-.95.54-1.29c.36-.35.77-.52,1.24-.52s.86.15,1.18.46c.32.31.48.72.48,1.24Z"/>
      <path class="cls-1" d="M854.21,166.92c-.05.47-.11.99-.19,1.55-.07.57-.15,1.04-.22,1.41h.07c.67-1.06,1.53-1.89,2.58-2.5,1.05-.6,2.17-.91,3.36-.91,1.88,0,3.35.48,4.4,1.42,1.05.95,1.58,2.24,1.58,3.87,0,.3-.02.59-.06.89s-.08.62-.13.96l-1.91,10.62h-2.49l1.7-9.58c.15-.76.22-1.49.22-2.18,0-1.21-.28-2.16-.85-2.87-.57-.7-1.57-1.05-3-1.05-.67,0-1.33.14-2,.41s-1.29.69-1.87,1.26c-.58.57-1.09,1.28-1.54,2.13s-.76,1.86-.96,3.02l-1.55,8.88h-2.48l2.37-13.5c.1-.47.2-1.07.31-1.81.11-.74.19-1.41.24-2h2.41Z"/>
      <path class="cls-1" d="M884.7,169.73c.27-.44.63-.86,1.07-1.26.44-.39.94-.74,1.5-1.04.56-.3,1.15-.53,1.79-.7.64-.17,1.31-.26,2-.26,1.18,0,2.25.18,3.2.54.95.36,1.77.87,2.46,1.54.69.67,1.22,1.46,1.59,2.37s.55,1.92.55,3.03c0,1.48-.26,2.87-.78,4.18-.52,1.31-1.23,2.44-2.13,3.4-.9.96-1.97,1.73-3.22,2.29-1.25.57-2.6.85-4.05.85-1.26,0-2.44-.28-3.53-.85-1.1-.57-1.93-1.41-2.5-2.52h-.07l-2.11,11.8h-2.48l4.66-26.2h2.48l-.52,2.81h.07ZM896.28,174.11c0-.77-.12-1.49-.35-2.17-.23-.68-.59-1.27-1.05-1.78-.47-.51-1.04-.9-1.7-1.19-.67-.28-1.44-.43-2.33-.43-1.09,0-2.1.22-3.03.67-.94.45-1.75,1.06-2.44,1.84s-1.23,1.68-1.63,2.71c-.39,1.03-.59,2.11-.59,3.25,0,.82.13,1.56.39,2.24.26.68.63,1.27,1.13,1.78s1.08.9,1.76,1.17c.68.27,1.45.41,2.31.41,1.13,0,2.16-.22,3.09-.67.92-.44,1.72-1.05,2.39-1.82s1.18-1.66,1.54-2.69c.36-1.03.54-2.13.54-3.32Z"/>
      <path class="cls-1" d="M905.4,168.92c.11-.74.19-1.41.24-2h2.37c-.05.47-.11.99-.18,1.55-.07.57-.15,1.04-.22,1.41h.07c.64-1.01,1.46-1.83,2.44-2.46.99-.63,2.1-.94,3.33-.94.32,0,.6.01.85.04.25.02.5.07.78.15l-.59,2.37c-.12-.05-.35-.1-.68-.15-.33-.05-.67-.07-1.02-.07-.67,0-1.32.12-1.96.37-.64.25-1.23.64-1.76,1.17-.53.53-1,1.21-1.41,2.04-.41.83-.71,1.82-.91,2.98l-1.55,8.88h-2.48l2.37-13.5c.1-.47.2-1.07.31-1.81Z"/>
      <path class="cls-1" d="M923.06,184.68c-1.16,0-2.23-.19-3.22-.55-.99-.37-1.83-.88-2.54-1.54-.7-.65-1.25-1.44-1.65-2.37-.39-.92-.59-1.94-.59-3.05,0-1.46.25-2.83.76-4.13.5-1.29,1.21-2.43,2.13-3.4.91-.97,2-1.74,3.26-2.31,1.26-.57,2.64-.85,4.14-.85,1.18,0,2.26.18,3.24.54.97.36,1.81.87,2.52,1.54s1.25,1.46,1.65,2.37c.39.91.59,1.92.59,3.03,0,1.48-.25,2.87-.76,4.18-.51,1.31-1.21,2.44-2.13,3.4-.91.96-2,1.73-3.26,2.29-1.26.57-2.64.85-4.14.85ZM930.76,174.11c0-.79-.12-1.53-.37-2.21-.25-.68-.61-1.27-1.09-1.76-.48-.5-1.06-.88-1.75-1.17-.69-.28-1.46-.43-2.33-.43-1.08,0-2.08.23-2.99.69-.91.46-1.7,1.08-2.36,1.86s-1.19,1.68-1.57,2.71c-.38,1.03-.57,2.11-.57,3.25,0,.79.12,1.53.37,2.21.25.68.61,1.27,1.09,1.76.48.5,1.06.88,1.73,1.17.68.28,1.44.43,2.31.43,1.11,0,2.12-.23,3.04-.69.92-.46,1.72-1.07,2.38-1.84s1.18-1.66,1.55-2.69c.37-1.03.55-2.12.55-3.28Z"/>
      <path class="cls-1" d="M947.08,168.99h-4.7l-1.81,10.17c-.07.45-.11.84-.11,1.19,0,.82.2,1.36.59,1.63.39.27.91.41,1.55.41.34,0,.73-.05,1.15-.16.42-.11.74-.25.96-.43l-.3,2.15c-.32.17-.73.3-1.24.39-.51.09-1.04.13-1.61.13-.42,0-.85-.05-1.28-.15-.43-.1-.83-.28-1.18-.54-.36-.26-.65-.61-.89-1.05s-.35-1.01-.35-1.7c0-.34.04-.74.11-1.18l1.92-10.84h-3.59l.41-2.07h3.52l.85-4.88h2.48l-.85,4.88h4.77l-.41,2.07Z"/>
      <path class="cls-1" d="M951.07,176.24c-.02.15-.04.29-.05.43-.01.14-.02.27-.02.39,0,.82.14,1.56.42,2.23.28.67.68,1.25,1.18,1.75.5.5,1.1.88,1.78,1.15.68.27,1.41.41,2.2.41,1.36,0,2.54-.3,3.55-.91,1.01-.6,1.83-1.31,2.44-2.13l1.55,1.48c-1.01,1.21-2.18,2.11-3.52,2.72s-2.75.91-4.25.91c-1.11,0-2.15-.17-3.11-.52-.96-.34-1.79-.84-2.5-1.48-.7-.64-1.26-1.44-1.67-2.39-.41-.95-.61-2.03-.61-3.24,0-1.41.26-2.75.78-4.03.52-1.28,1.23-2.41,2.13-3.37s1.96-1.73,3.18-2.31c1.22-.58,2.53-.87,3.94-.87,2.37,0,4.16.63,5.38,1.89,1.22,1.26,1.83,2.89,1.83,4.88,0,.3-.02.75-.07,1.35-.05.6-.14,1.15-.26,1.65h-14.32ZM963.17,174.39c.02-.2.04-.41.06-.65.01-.23.02-.45.02-.65,0-1.33-.41-2.42-1.22-3.27-.81-.85-2.01-1.28-3.59-1.28-.91,0-1.76.15-2.53.46-.78.31-1.47.73-2.07,1.28-.6.54-1.12,1.17-1.54,1.87-.42.7-.72,1.45-.89,2.24h11.77Z"/>
      <path class="cls-1" d="M972.01,184.23h-2.48l3.07-17.32h2.48l-3.07,17.32ZM976.57,160.22c0,.49-.17.91-.5,1.26-.33.35-.75.52-1.24.52s-.87-.15-1.2-.44c-.33-.3-.5-.7-.5-1.22s.18-.95.54-1.29c.36-.35.77-.52,1.24-.52s.86.15,1.18.46c.32.31.48.72.48,1.24Z"/>
      <path class="cls-1" d="M984.08,166.92c-.05.47-.11.99-.19,1.55-.07.57-.15,1.04-.22,1.41h.07c.67-1.06,1.53-1.89,2.58-2.5,1.05-.6,2.17-.91,3.36-.91,1.88,0,3.35.48,4.4,1.42,1.05.95,1.58,2.24,1.58,3.87,0,.3-.02.59-.06.89s-.08.62-.13.96l-1.91,10.62h-2.49l1.7-9.58c.15-.76.22-1.49.22-2.18,0-1.21-.28-2.16-.85-2.87-.57-.7-1.57-1.05-3-1.05-.67,0-1.33.14-2,.41s-1.29.69-1.87,1.26c-.58.57-1.09,1.28-1.54,2.13s-.76,1.86-.96,3.02l-1.55,8.88h-2.48l2.37-13.5c.1-.47.2-1.07.31-1.81.11-.74.19-1.41.24-2h2.41Z"/>
      <path class="cls-1" d="M1021.11,170.73c-.35-.64-.86-1.17-1.55-1.57-.69-.41-1.52-.61-2.48-.61-.44,0-.91.05-1.39.15-.48.1-.92.26-1.33.48-.41.22-.74.51-1,.87-.26.36-.39.8-.39,1.31,0,.47.08.85.24,1.15s.39.55.68.76c.3.21.65.4,1.07.56.42.16.9.31,1.44.46,1.7.49,3,1.12,3.88,1.87.89.75,1.33,1.82,1.33,3.2,0,.94-.21,1.75-.63,2.42-.42.68-.95,1.23-1.59,1.67-.64.43-1.36.75-2.15.94-.79.2-1.57.3-2.33.3-1.46,0-2.82-.27-4.09-.8-1.27-.53-2.26-1.35-2.98-2.46l2.15-1.41c.42.72,1.05,1.33,1.89,1.83.84.51,1.81.76,2.92.76.54,0,1.07-.06,1.59-.17.52-.11.98-.28,1.39-.52.41-.23.73-.54.98-.93.25-.38.37-.83.37-1.35,0-.92-.36-1.61-1.09-2.1-.73-.48-1.77-.95-3.13-1.39-.52-.17-1.04-.37-1.55-.59-.52-.22-.99-.51-1.41-.87-.42-.36-.76-.79-1.02-1.3-.26-.51-.39-1.12-.39-1.84,0-.89.2-1.66.61-2.3.41-.64.93-1.17,1.55-1.58s1.34-.71,2.13-.91,1.58-.3,2.37-.3c1.33,0,2.52.26,3.57.78s1.81,1.21,2.28,2.07l-1.96,1.41Z"/>
      <path class="cls-1" d="M1028.29,176.24c-.02.15-.04.29-.05.43-.01.14-.02.27-.02.39,0,.82.14,1.56.42,2.23.28.67.68,1.25,1.18,1.75.5.5,1.1.88,1.78,1.15.68.27,1.41.41,2.2.41,1.36,0,2.54-.3,3.55-.91,1.01-.6,1.83-1.31,2.44-2.13l1.55,1.48c-1.01,1.21-2.18,2.11-3.52,2.72s-2.75.91-4.25.91c-1.11,0-2.15-.17-3.11-.52-.96-.34-1.79-.84-2.5-1.48-.7-.64-1.26-1.44-1.67-2.39-.41-.95-.61-2.03-.61-3.24,0-1.41.26-2.75.78-4.03.52-1.28,1.23-2.41,2.13-3.37s1.96-1.73,3.18-2.31c1.22-.58,2.53-.87,3.94-.87,2.37,0,4.16.63,5.38,1.89,1.22,1.26,1.83,2.89,1.83,4.88,0,.3-.02.75-.07,1.35-.05.6-.14,1.15-.26,1.65h-14.32ZM1040.39,174.39c.02-.2.04-.41.06-.65.01-.23.02-.45.02-.65,0-1.33-.41-2.42-1.22-3.27-.81-.85-2.01-1.28-3.59-1.28-.91,0-1.76.15-2.53.46-.78.31-1.47.73-2.07,1.28-.6.54-1.12,1.17-1.54,1.87-.42.7-.72,1.45-.89,2.24h11.77Z"/>
      <path class="cls-1" d="M1046.64,177.2c0-1.48.25-2.87.76-4.18.5-1.31,1.21-2.44,2.13-3.4.91-.96,1.99-1.73,3.24-2.29,1.25-.57,2.6-.85,4.05-.85,1.26,0,2.44.28,3.53.85,1.1.57,1.93,1.41,2.5,2.52h.07l.52-2.92h2.48l-4.62,26.2h-2.48l2.07-11.69h-.07c-.27.44-.63.86-1.07,1.26-.44.4-.94.74-1.5,1.04s-1.15.53-1.79.7c-.64.17-1.31.26-2,.26-1.18,0-2.25-.18-3.2-.54-.95-.36-1.77-.87-2.46-1.54-.69-.67-1.22-1.46-1.59-2.37-.37-.91-.56-1.92-.56-3.03ZM1049.23,177.04c0,.79.12,1.52.35,2.19.23.67.59,1.26,1.05,1.76.47.51,1.04.9,1.7,1.19.67.28,1.44.43,2.33.43,1.08,0,2.1-.22,3.03-.67.94-.44,1.75-1.06,2.44-1.84s1.23-1.68,1.63-2.69.59-2.1.59-3.26c0-.82-.13-1.56-.39-2.24-.26-.68-.64-1.27-1.13-1.78s-1.09-.9-1.78-1.17c-.69-.27-1.46-.41-2.29-.41-1.14,0-2.17.22-3.09.67-.92.45-1.72,1.05-2.39,1.82s-1.18,1.66-1.54,2.69c-.36,1.03-.54,2.13-.54,3.32Z"/>
      <path class="cls-1" d="M1081.79,184.23c.05-.47.11-.99.19-1.55.07-.57.15-1.04.22-1.41h-.07c-.67,1.06-1.52,1.89-2.57,2.5-1.05.6-2.16.91-3.35.91-1.88,0-3.34-.47-4.38-1.41-1.05-.94-1.57-2.22-1.57-3.85,0-.3.02-.59.06-.89.04-.3.08-.62.13-.96l1.91-10.62h2.49l-1.7,9.58c-.15.79-.22,1.52-.22,2.18,0,1.21.28,2.16.85,2.85.57.69,1.56,1.04,2.99,1.04.66,0,1.33-.14,1.99-.41.66-.27,1.28-.68,1.86-1.24.58-.56,1.09-1.26,1.53-2.11.44-.85.76-1.86.96-3.02l1.55-8.88h2.48l-2.37,13.5c-.1.47-.2,1.07-.31,1.8-.11.73-.19,1.39-.24,1.97h-2.41Z"/>
      <path class="cls-1" d="M1093.52,176.24c-.02.15-.04.29-.05.43-.01.14-.02.27-.02.39,0,.82.14,1.56.42,2.23.28.67.68,1.25,1.18,1.75.5.5,1.1.88,1.78,1.15.68.27,1.41.41,2.2.41,1.36,0,2.54-.3,3.55-.91,1.01-.6,1.83-1.31,2.44-2.13l1.55,1.48c-1.01,1.21-2.18,2.11-3.52,2.72s-2.75.91-4.25.91c-1.11,0-2.15-.17-3.11-.52-.96-.34-1.79-.84-2.5-1.48-.7-.64-1.26-1.44-1.67-2.39-.41-.95-.61-2.03-.61-3.24,0-1.41.26-2.75.78-4.03.52-1.28,1.23-2.41,2.13-3.37s1.96-1.73,3.18-2.31c1.22-.58,2.53-.87,3.94-.87,2.37,0,4.16.63,5.38,1.89,1.22,1.26,1.83,2.89,1.83,4.88,0,.3-.02.75-.07,1.35-.05.6-.14,1.15-.26,1.65h-14.32ZM1105.62,174.39c.02-.2.04-.41.06-.65.01-.23.02-.45.02-.65,0-1.33-.41-2.42-1.22-3.27-.81-.85-2.01-1.28-3.59-1.28-.91,0-1.76.15-2.53.46-.78.31-1.47.73-2.07,1.28-.6.54-1.12,1.17-1.54,1.87-.42.7-.72,1.45-.89,2.24h11.77Z"/>
      <path class="cls-1" d="M1117.28,166.92c-.05.47-.11.99-.19,1.55-.07.57-.15,1.04-.22,1.41h.07c.67-1.06,1.53-1.89,2.58-2.5,1.05-.6,2.17-.91,3.36-.91,1.88,0,3.35.48,4.4,1.42,1.05.95,1.58,2.24,1.58,3.87,0,.3-.02.59-.06.89s-.08.62-.13.96l-1.91,10.62h-2.49l1.7-9.58c.15-.76.22-1.49.22-2.18,0-1.21-.28-2.16-.85-2.87-.57-.7-1.57-1.05-3-1.05-.67,0-1.33.14-2,.41s-1.29.69-1.87,1.26c-.58.57-1.09,1.28-1.54,2.13s-.76,1.86-.96,3.02l-1.55,8.88h-2.48l2.37-13.5c.1-.47.2-1.07.31-1.81.11-.74.19-1.41.24-2h2.41Z"/>
      <path class="cls-1" d="M1147.76,170.84c-.3-.67-.81-1.21-1.54-1.65-.73-.43-1.56-.65-2.5-.65-1.11,0-2.13.22-3.07.67-.94.45-1.75,1.06-2.42,1.84-.68.78-1.21,1.68-1.59,2.71-.38,1.03-.57,2.12-.57,3.28,0,.79.12,1.53.37,2.21.25.68.61,1.27,1.09,1.76.48.5,1.07.88,1.76,1.17.69.28,1.48.43,2.37.43,1.11,0,2.08-.21,2.92-.63.84-.42,1.57-.96,2.18-1.63l1.59,1.37c-.89.91-1.89,1.63-3,2.16-1.11.53-2.4.8-3.88.8-1.23,0-2.34-.18-3.33-.54-.99-.36-1.83-.86-2.54-1.52-.71-.65-1.25-1.44-1.63-2.35-.38-.91-.56-1.92-.56-3.03,0-1.48.25-2.87.75-4.18.5-1.31,1.2-2.45,2.11-3.42.91-.97,2-1.74,3.28-2.31,1.28-.57,2.7-.85,4.25-.85,1.28,0,2.49.23,3.61.7,1.12.47,1.97,1.21,2.54,2.22l-2.18,1.44Z"/>
      <path class="cls-1" d="M1154.31,176.24c-.02.15-.04.29-.05.43-.01.14-.02.27-.02.39,0,.82.14,1.56.42,2.23.28.67.68,1.25,1.18,1.75.5.5,1.1.88,1.78,1.15.68.27,1.41.41,2.2.41,1.36,0,2.54-.3,3.55-.91,1.01-.6,1.83-1.31,2.44-2.13l1.55,1.48c-1.01,1.21-2.18,2.11-3.52,2.72s-2.75.91-4.25.91c-1.11,0-2.15-.17-3.11-.52-.96-.34-1.79-.84-2.5-1.48-.7-.64-1.26-1.44-1.67-2.39-.41-.95-.61-2.03-.61-3.24,0-1.41.26-2.75.78-4.03.52-1.28,1.23-2.41,2.13-3.37s1.96-1.73,3.18-2.31c1.22-.58,2.53-.87,3.94-.87,2.37,0,4.16.63,5.38,1.89,1.22,1.26,1.83,2.89,1.83,4.88,0,.3-.02.75-.07,1.35-.05.6-.14,1.15-.26,1.65h-14.32ZM1166.41,174.39c.02-.2.04-.41.06-.65.01-.23.02-.45.02-.65,0-1.33-.41-2.42-1.22-3.27-.81-.85-2.01-1.28-3.59-1.28-.91,0-1.76.15-2.53.46-.78.31-1.47.73-2.07,1.28-.6.54-1.12,1.17-1.54,1.87-.42.7-.72,1.45-.89,2.24h11.77Z"/>
      <path class="cls-1" d="M1184.5,170.73c-.35-.64-.86-1.17-1.55-1.57-.69-.41-1.52-.61-2.48-.61-.44,0-.91.05-1.39.15-.48.1-.92.26-1.33.48-.41.22-.74.51-1,.87-.26.36-.39.8-.39,1.31,0,.47.08.85.24,1.15s.39.55.68.76c.3.21.65.4,1.07.56.42.16.9.31,1.44.46,1.7.49,3,1.12,3.88,1.87.89.75,1.33,1.82,1.33,3.2,0,.94-.21,1.75-.63,2.42-.42.68-.95,1.23-1.59,1.67-.64.43-1.36.75-2.15.94-.79.2-1.57.3-2.33.3-1.46,0-2.82-.27-4.09-.8-1.27-.53-2.26-1.35-2.98-2.46l2.15-1.41c.42.72,1.05,1.33,1.89,1.83.84.51,1.81.76,2.92.76.54,0,1.07-.06,1.59-.17.52-.11.98-.28,1.39-.52.41-.23.73-.54.98-.93.25-.38.37-.83.37-1.35,0-.92-.36-1.61-1.09-2.1-.73-.48-1.77-.95-3.13-1.39-.52-.17-1.04-.37-1.55-.59-.52-.22-.99-.51-1.41-.87-.42-.36-.76-.79-1.02-1.3-.26-.51-.39-1.12-.39-1.84,0-.89.2-1.66.61-2.3.41-.64.93-1.17,1.55-1.58s1.34-.71,2.13-.91,1.58-.3,2.37-.3c1.33,0,2.52.26,3.57.78s1.81,1.21,2.28,2.07l-1.96,1.41Z"/>
    </g>
  </g>
  <g id="Layer_2" data-name="Layer 2">
    <g>
      <path class="cls-2" d="M475.62,125.17c-11.56,0-21.08-5.17-27.2-13.33v10.74h-16.05V16.5h17v48.14c6.12-7.75,15.5-12.65,26.25-12.65,19.45,0,34,16.73,34,36.72s-14.55,36.45-34,36.45ZM470.59,110.34c12.24,0,21.35-10.06,21.35-21.76s-9.11-21.76-21.35-21.76-21.62,10.06-21.62,21.9,9.38,21.62,21.62,21.62Z"/>
      <path class="cls-2" d="M540.5,122.58h-16.86V16.5h16.86v106.08Z"/>
      <path class="cls-2" d="M632.98,88.58c0,20.67-16.73,37.26-39.44,37.26s-39.44-16.59-39.44-37.26,16.86-37.26,39.44-37.26,39.44,16.59,39.44,37.26ZM571.91,88.58c0,12.51,9.11,22.71,21.62,22.71s21.76-10.34,21.76-22.71-9.25-22.71-21.76-22.71-21.62,10.34-21.62,22.71Z"/>
      <path class="cls-2" d="M689.56,125.17c-11.56,0-21.08-5.17-27.2-13.33v10.74h-16.05V16.5h17v48.14c6.12-7.75,15.5-12.65,26.25-12.65,19.45,0,34,16.73,34,36.72s-14.55,36.45-34,36.45ZM684.52,110.34c12.24,0,21.35-10.06,21.35-21.76s-9.11-21.76-21.35-21.76-21.62,10.06-21.62,21.9,9.38,21.62,21.62,21.62Z"/>
      <path class="cls-2" d="M783.67,114.02c-4.22,5.17-12.1,10.34-22.3,10.34-14.28,0-24.48-9.66-24.48-25.43v-44.34h17v39.3c0,11.42,6.53,15.37,14.28,15.37,6.66,0,14.82-5.03,14.82-14.14v-40.53h16.73v68h-16.05v-8.57Z"/>
      <path class="cls-2" d="M833.18,122.58h-16.86V16.5h16.86v106.08Z"/>
      <path class="cls-2" d="M891.12,115.92c-4.35,5.03-11.29,9.11-20.54,9.11-14.01,0-23.8-9.38-23.8-22.17s9.79-22.44,25.16-22.44c7.75,0,13.87,2.31,18.09,5.58v-3.81c0-11.83-5.98-15.64-16.05-15.64-4.35,0-8.57.54-16.86,2.18l-.54-13.87c8.43-1.63,13.33-2.18,20.54-2.18,19.99,0,29.78,10.06,29.78,25.43v44.47h-15.78v-6.66ZM890.16,102.46c0-6.53-5.3-11.83-13.06-11.83s-12.92,5.3-12.92,11.83,5.03,12.38,12.92,12.38c7.48,0,13.06-5.58,13.06-12.38Z"/>
      <path class="cls-2" d="M944.7,68.73v53.86h-16.86v-53.86h-8.43v-14.14h8.43v-21.62l16.86-5.03v26.66h8.43v14.14h-8.43Z"/>
      <path class="cls-2" d="M1040.72,88.58c0,20.67-16.73,37.26-39.44,37.26s-39.44-16.59-39.44-37.26,16.86-37.26,39.44-37.26,39.44,16.59,39.44,37.26ZM979.65,88.58c0,12.51,9.11,22.71,21.62,22.71s21.76-10.34,21.76-22.71-9.25-22.71-21.76-22.71-21.62,10.34-21.62,22.71Z"/>
      <path class="cls-2" d="M1071.05,122.58h-17V54.58h16.18v14.42c2.45-5.3,9.52-14.69,19.45-14.69h2.31v18.9c-.82-.41-2.31-.54-3.26-.54-10.88,0-17.68,8.43-17.68,14.28v35.63Z"/>
    </g>
    <g>
      <path class="cls-1" d="M1105.03,33.36h-7.38v-2.66h17.96v2.66h-7.42v21.6h-3.17v-21.6Z"/>
      <path class="cls-1" d="M1138.76,44.3c-.18-3.38-.4-7.45-.36-10.47h-.11c-.83,2.84-1.84,5.87-3.06,9.21l-4.28,11.77h-2.38l-3.92-11.55c-1.15-3.42-2.12-6.55-2.81-9.43h-.07c-.07,3.02-.25,7.09-.47,10.73l-.65,10.4h-2.99l1.69-24.26h4l4.14,11.73c1.01,2.99,1.84,5.65,2.45,8.17h.11c.61-2.45,1.48-5.11,2.56-8.17l4.32-11.73h4l1.51,24.26h-3.06l-.61-10.65Z"/>
    </g>
  </g>
</svg>